<?xml version="1.0" standalone="no"?>
<!DOCTYPE svg PUBLIC "-//W3C//DTD SVG 20010904//EN"
 "http://www.w3.org/TR/2001/REC-SVG-20010904/DTD/svg10.dtd">
<svg version="1.0" xmlns="http://www.w3.org/2000/svg"
 width="260.000000pt" height="260.000000pt" viewBox="0 0 260.000000 260.000000"
 preserveAspectRatio="xMidYMid meet">
<metadata>
Created by potrace 1.11, written by Peter Selinger 2001-2013
</metadata>
<g transform="translate(0.000000,260.000000) scale(0.100000,-0.100000)"
fill="#000000" stroke="none">
<path d="M199 2208 c-1 -5 -6 -69 -13 -164 -4 -49 -9 -107 -11 -129 -4 -42
-11 -123 -20 -240 -3 -38 -8 -90 -10 -115 -2 -25 -7 -81 -10 -125 -3 -44 -8
-93 -10 -110 -2 -16 -7 -75 -10 -130 -4 -55 -8 -111 -10 -125 -5 -34 -18 -207
-19 -247 -1 -31 -3 -33 -39 -33 l-37 0 2 -202 3 -201 93 -1 c75 -1 92 2 93 14
1 8 1 57 1 108 l1 92 213 0 213 0 3 -106 3 -107 65 1 c36 0 80 1 98 1 l32 1 0
200 0 200 -44 0 -43 0 0 708 0 707 -271 3 c-150 1 -272 1 -273 0z m351 -803
l0 -615 -139 0 c-133 0 -140 1 -136 19 2 11 6 64 10 118 3 54 8 109 10 123 2
14 7 66 10 115 4 50 8 106 10 125 2 19 6 78 10 130 4 52 9 102 10 111 2 9 7
61 10 115 4 55 9 106 10 114 3 15 18 211 19 243 0 15 11 17 88 17 l88 0 0
-615z"/>
<path d="M991 1405 l0 -805 339 0 338 0 0 200 0 201 -96 -3 -97 -3 -1 -92 c-1
-51 -2 -98 -3 -103 -1 -7 -51 -10 -143 -8 l-143 3 0 610 0 610 145 0 145 0 -1
-97 0 -98 97 0 98 0 0 195 0 195 -339 0 -339 0 0 -805z"/>
<path d="M1851 1405 l0 -806 97 3 97 3 0 355 0 355 62 3 62 3 25 -83 c50 -167
186 -627 186 -633 0 -3 49 -5 109 -5 l110 0 -9 28 c-5 15 -22 72 -39 127 -17
55 -65 210 -106 345 -42 135 -83 265 -90 289 -15 47 -14 52 205 734 l28 88
-106 -3 -106 -3 -99 -335 c-54 -184 -100 -341 -102 -347 -3 -9 -26 -13 -67
-13 l-63 0 0 350 0 350 -97 0 -97 0 0 -805z"/>
</g>
</svg>
