<svg xmlns="http://www.w3.org/2000/svg" style="display:none"><symbol id="icon-bath" viewBox="0 0 512 512"><path d="M32 255.051h448c17.643 0 32 14.357 32 32s-14.357 32-32 32H32c-17.643 0-32-14.357-32-32s14.357-32 32-32zm0 42.666h448c5.867 0 10.667-4.779 10.667-10.667s-4.8-10.667-10.667-10.667H32c-5.867 0-10.667 4.779-10.667 10.667s4.8 10.667 10.667 10.667z" data-original="#000000" class="active-path"/><path d="M29.056 298.123c5.781-1.6 11.584 1.664 13.184 7.339l29.397 102.912c6.507 22.763 27.605 38.677 51.285 38.677h266.134c23.68 0 44.757-15.915 51.285-38.677l29.398-102.913c1.6-5.675 7.424-8.939 13.184-7.339a10.644 10.644 0 0 1 7.317 13.184l-29.397 102.912c-9.109 31.893-38.613 54.165-71.787 54.165H122.944c-33.173 0-62.699-22.272-71.808-54.165L21.739 311.306c-1.622-5.653 1.642-11.562 7.317-13.183z" data-original="#000000" class="active-path"/><path d="M389.056 404.405c4.736 0 8.939-3.2 10.261-7.744l13.845-48.512c1.6-5.653 7.467-8.96 13.184-7.339 5.653 1.621 8.939 7.509 7.317 13.184l-13.845 48.512c-3.883 13.675-16.555 23.211-30.763 23.211-5.888 0-10.667-4.757-10.667-10.645.001-5.888 4.78-10.667 10.668-10.667zM368.576 448.16c5.269-2.581 11.648-.512 14.315 4.779l21.333 42.667c2.624 5.269.491 11.669-4.779 14.315a10.647 10.647 0 0 1-14.315-4.778l-21.333-42.667c-2.624-5.271-.49-11.671 4.779-14.316zM107.776 495.627l21.333-42.667c2.645-5.291 9.045-7.403 14.315-4.779 5.269 2.645 7.403 9.045 4.779 14.315l-21.333 42.667a10.665 10.665 0 0 1-9.536 5.888c-1.6 0-3.221-.363-4.779-1.109-5.27-2.646-7.403-9.046-4.779-14.315zM83.52.949c10.88 0 21.12 4.245 28.821 11.947l33.856 33.856c4.16 4.16 4.16 10.923 0 15.083s-10.923 4.16-15.083 0L97.259 28c-3.648-3.669-8.533-5.696-13.845-5.696-10.709 0-19.413 8.704-19.413 19.413v224c0 5.888-4.779 10.667-10.667 10.667s-10.667-4.779-10.688-10.688v-224C42.645 19.232 60.907.949 83.52.949z" data-original="#000000" class="active-path"/><path d="M120.427 57.44l21.333-21.333c2.453-2.453 5.845-3.584 9.28-2.987l53.333 8.747c3.925.619 7.147 3.392 8.405 7.168s.299 7.936-2.475 10.773l-64 65.92c-2.005 2.112-4.8 3.243-7.637 3.243-1.003 0-2.027-.149-3.051-.427a10.63 10.63 0 0 1-7.445-8.128l-10.667-53.333a10.682 10.682 0 0 1 2.924-9.643zm24.725 38.869L180.8 59.595l-27.797-4.544-13.419 13.419 5.568 27.839zM259.136 130.187c4.16-4.16 10.923-4.16 15.083 0l21.333 21.333c4.16 4.16 4.16 10.923 0 15.083-2.091 2.069-4.821 3.115-7.552 3.115s-5.461-1.045-7.531-3.115l-21.333-21.333c-4.16-4.161-4.16-10.923 0-15.083zM216.469 172.853c4.16-4.16 10.923-4.16 15.083 0l21.333 21.333c4.16 4.16 4.16 10.923 0 15.083a10.716 10.716 0 0 1-7.552 3.115 10.627 10.627 0 0 1-7.531-3.115l-21.333-21.333c-4.16-4.16-4.16-10.923 0-15.083zM195.136 108.853c4.16-4.16 10.923-4.16 15.083 0l21.333 21.333c4.16 4.16 4.16 10.923 0 15.083-2.091 2.069-4.821 3.115-7.552 3.115s-5.461-1.045-7.531-3.115l-21.333-21.333c-4.16-4.16-4.16-10.923 0-15.083z" data-original="#000000" class="active-path"/></symbol><symbol id="icon-bed" viewBox="0 0 512 512"><path d="M511.168 344.981c.789-2.112 1.067-4.437.341-6.784L469.333 201.13V74.667c0-29.397-23.915-53.333-53.333-53.333H96c-29.419 0-53.333 23.936-53.333 53.333v126.464L.491 338.197c-.725 2.325-.448 4.651.341 6.784C.32 347.243 0 349.568 0 352v128c0 5.888 4.779 10.667 10.667 10.667h42.667C59.221 490.667 64 485.888 64 480v-32h384v32c0 5.888 4.779 10.667 10.667 10.667h42.667c5.888 0 10.667-4.779 10.667-10.667V352c-.001-2.432-.321-4.757-.833-7.019zM64 74.667c0-17.643 14.357-32 32-32h320c17.643 0 32 14.357 32 32V192h-28.992l-9.941-39.765A31.994 31.994 0 0 0 378.005 128h-68.672c-17.643 0-32 14.357-32 32v32h-42.667v-31.979c0-17.643-14.357-32-32-32h-68.672c-14.699 0-27.477 9.984-31.061 24.235L92.992 192H64V74.667zm333.099 134.57a10.663 10.663 0 0 1-8.427 4.096h-79.339c-5.867 0-10.667-4.779-10.667-10.667V160c0-5.888 4.8-10.667 10.667-10.667h68.693c4.907 0 9.152 3.307 10.347 8.064l10.667 42.667a10.58 10.58 0 0 1-1.941 9.173zM213.355 160v42.56c0 .043-.021.064-.021.107v.043c-.021 5.867-4.8 10.624-10.645 10.624H123.35a10.633 10.633 0 0 1-8.427-4.096 10.595 10.595 0 0 1-1.941-9.173l10.667-42.667a10.667 10.667 0 0 1 10.368-8.064h68.672c5.866-.001 10.666 4.778 10.666 10.666zm-152.15 53.333h32.107c1.131 3.2 2.603 6.272 4.757 9.045 6.144 7.808 15.339 12.288 25.259 12.288h79.339c13.888 0 25.621-8.96 30.037-21.333h46.592c4.416 12.395 16.149 21.333 30.037 21.333h79.339c9.92 0 19.093-4.48 25.237-12.288 2.155-2.752 3.627-5.845 4.757-9.045h32.128l32.939 107.051c-1.237-.149-2.453-.384-3.733-.384H32c-1.28 0-2.496.235-3.712.384l32.917-107.051zm-18.538 256H21.333V448h21.333v21.333zm448 0h-21.333V448h21.333v21.333zm0-42.666H21.333V352c0-5.888 4.8-10.667 10.667-10.667h448c5.867 0 10.667 4.779 10.667 10.667v74.667z"/></symbol><symbol id="icon-ruler" viewBox="0 0 60.001 60.001"><path d="M59.708 58.294l-7.786-7.786-.001-.001h-.001L34.244 32.831l-.001-.001-.001-.001-17.675-17.676-.001-.001-.001-.001L1.708.294a.999.999 0 1 0-1.707.707v58a1 1 0 0 0 1 1h58a1 1 0 0 0 .707-1.707zm-57.707-.293V3.415l5.373 5.373-1.414 1.414a.999.999 0 1 0 1.414 1.414l1.414-1.414 2.121 2.121-2.829 2.829a.999.999 0 1 0 1.414 1.414l2.829-2.828 2.121 2.121-1.414 1.415a.999.999 0 1 0 1.414 1.414l1.414-1.415 2.122 2.122-2.829 2.828a.999.999 0 1 0 1.414 1.414l2.829-2.828 2.121 2.121-1.414 1.414a.999.999 0 1 0 1.414 1.414l1.414-1.414 2.122 2.122-2.829 2.828a.999.999 0 1 0 1.414 1.414l2.829-2.828 2.121 2.121-1.414 1.414a.999.999 0 1 0 1.414 1.414L30 31.415l2.121 2.121-2.828 2.829a.999.999 0 1 0 1.414 1.414l2.828-2.829 2.122 2.122-1.414 1.414a.999.999 0 1 0 1.414 1.414l1.414-1.414 2.121 2.121-2.828 2.829a.999.999 0 1 0 1.414 1.414l2.828-2.829 2.122 2.122-1.414 1.414a.999.999 0 1 0 1.414 1.414l1.414-1.414 2.121 2.121-2.829 2.828a.999.999 0 1 0 1.414 1.414l2.829-2.828 2.121 2.121-1.414 1.415a.999.999 0 1 0 1.414 1.414l1.414-1.415L56.585 58H2.001z"/><path d="M13.708 29.265a.999.999 0 1 0-1.707.707v17.029a1 1 0 0 0 1 1H30.03a1 1 0 0 0 .707-1.707L13.708 29.265zm.293 16.736V32.386l13.615 13.615H14.001z"/></symbol><symbol id="icon-terrace" viewBox="0 0 463.057 463.057"><path d="M343.029 311.528v-16.5h8.5a7.5 7.5 0 0 0 0-15h-13.594l3-9h2.594a7.5 7.5 0 0 0 0-15h-64a7.5 7.5 0 0 0 0 15h2.594l3 9h-46.094v-169h212.708c5.5 0 10.067-3.771 11.107-9.172 1.04-5.401-1.8-10.599-6.906-12.642L234.382.591a7.425 7.425 0 0 0-.747-.261l-.007-.002a7.67 7.67 0 0 0-.685-.165c-.058-.011-.117-.016-.176-.025-.175-.029-.351-.059-.527-.076a7.493 7.493 0 0 0-.67-.032l-.041-.002c-.238 0-.475.011-.712.034-.155.015-.309.042-.463.066-.08.013-.161.02-.24.035-.22.042-.438.096-.654.158l-.038.009a7.647 7.647 0 0 0-.745.261L7.119 89.213C2.013 91.256-.827 96.454.213 101.855s5.607 9.172 11.107 9.172h212.708v169h-46.094l3-9h2.594a7.5 7.5 0 0 0 0-15h-64a7.5 7.5 0 0 0 0 15h2.594l3 9h-13.594a7.5 7.5 0 0 0 0 15h8.5v16.5c0 8.547 6.953 15.5 15.5 15.5h88.5v82.234c-9.29 3.138-16 11.93-16 22.266v16.5h-16.5a7.5 7.5 0 0 0 0 15h80a7.5 7.5 0 0 0 0-15h-16.5v-16.5c0-10.335-6.71-19.127-16-22.266v-82.234h88.501v.001c8.547 0 15.5-6.953 15.5-15.5zm-17.906-40.5l-3 9h-21.188l-3-9h27.188zm107.462-175H330.636L262.67 28.062l169.915 67.966zm-402.112 0l169.916-67.966-67.966 67.966H30.473zm123.163 0l77.893-77.894 77.894 77.894H153.636zm11.487 175l-3 9h-21.188l-3-9h27.188zm74.906 160.5v16.5h-17v-16.5c0-4.687 3.813-8.5 8.5-8.5 4.687 0 8.5 3.813 8.5 8.5zm87.499-119.5h-192a.5.5 0 0 1-.499-.5v-16.5h.474l.025.002.024-.002h191.953l.024.002.025-.002h.474v16.5a.5.5 0 0 1-.5.5zM103.529 344.028H30.15l-15.179-121.43a7.504 7.504 0 0 0-8.372-6.512 7.5 7.5 0 0 0-6.512 8.373l15.942 127.537v103.533a7.5 7.5 0 0 0 15 0v-32.5h65v32.5a7.5 7.5 0 0 0 15 0v-65.734c9.29-3.138 16-11.93 16-22.266 0-12.959-10.542-23.501-23.5-23.501zm-7.5 64h-65v-17h65v17zm7.5-32h-72.5v-17h72.5c4.687 0 8.5 3.813 8.5 8.5s-3.813 8.5-8.5 8.5zM456.459 216.085a7.498 7.498 0 0 0-8.372 6.512l-15.179 121.43h-73.379c-12.958 0-23.5 10.542-23.5 23.5 0 10.335 6.71 19.127 16 22.266v65.734a7.5 7.5 0 0 0 15 0v-32.5h65v32.5a7.5 7.5 0 0 0 15 0V351.994l15.942-127.537a7.5 7.5 0 0 0-6.512-8.372zm-24.43 191.943h-65v-17h65v17zm0-32h-72.5c-4.687 0-8.5-3.813-8.5-8.5s3.813-8.5 8.5-8.5h72.5v17z"/></symbol><symbol id="temp-icon-left-arrow" viewBox="0 0 31.494 31.494"><path d="M10.273 5.01a1.117 1.117 0 0 1 1.587 1.57l-8.047 8.047h26.554c.62 0 1.127.492 1.127 1.11 0 .62-.508 1.128-1.127 1.128H3.813l8.047 8.032c.43.444.43 1.16 0 1.587a1.112 1.112 0 0 1-1.587 0L.32 16.532a1.12 1.12 0 0 1 0-1.57l9.953-9.953z" fill="#1E201D"/></symbol><symbol id="temp-icon-right-arrow" viewBox="0 0 31.49 31.49"><path d="M21.205 5.007a1.117 1.117 0 0 0-1.587 1.57l8.047 8.048H1.11c-.618 0-1.11.493-1.11 1.112 0 .62.492 1.127 1.11 1.127h26.555l-8.047 8.032c-.43.444-.43 1.16 0 1.587.444.444 1.16.444 1.587 0l9.952-9.952a1.092 1.092 0 0 0 0-1.57l-9.952-9.95z" fill="#1E201D"/></symbol></svg>